<svg width="60" height="61" viewBox="0 0 60 61" fill="none" xmlns="http://www.w3.org/2000/svg">
<path d="M30.0674 60.0836C25.3324 60.2933 20.9098 59.0393 16.7058 57.0221C14.0728 55.7592 11.6584 54.1347 9.65017 51.9346C7.97216 50.1004 6.10226 48.4536 4.83037 46.2534C3.04079 43.1518 1.62609 39.9386 0.862952 36.413C0.501467 34.735 0.577334 33.0302 0.148907 31.3611C-0.0876204 30.4373 -0.0429926 29.3797 0.287253 28.4023C0.376509 28.1345 0.47469 27.8489 0.470227 27.5722C0.461302 24.8901 1.26014 22.3775 2.15716 19.9141C3.40674 16.4778 5.14276 13.3136 7.72671 10.6583C9.21282 9.13201 10.6989 7.63252 12.3948 6.32046C14.6217 4.60675 17.0673 3.35271 19.6691 2.36643C21.8648 1.53189 24.1453 0.849088 26.4615 0.648263C31.3884 0.219835 36.235 0.679502 40.9075 2.55833C43.4424 3.57585 45.7496 4.90576 47.9453 6.5079C49.1681 7.40045 50.1231 8.55185 51.2254 9.55598C55.2598 13.2333 57.5046 17.9549 58.9594 23.0916C59.3209 24.3635 59.6735 25.6979 59.5753 27.0769C59.5441 27.4919 59.6199 27.9382 59.7583 28.3309C60.0305 29.0985 60.035 29.8884 59.9547 30.6605C59.5976 34.1147 59.1915 37.5599 57.9062 40.8401C56.8352 43.5802 55.4517 46.1419 53.7023 48.4848C52.8142 49.6764 51.6092 50.618 50.5962 51.7248C48.646 53.8535 46.303 55.4423 43.7994 56.8124C41.2199 58.2226 38.3905 58.9367 35.5655 59.6596C33.7447 60.1238 31.9061 60.0836 30.0585 60.0836H30.0674Z" fill="white"/>
<path d="M43.728 30.2012C43.9199 32.3255 42.7015 33.6956 41.1708 34.8425C40.3541 35.4539 39.1581 35.5119 38.444 34.2445C37.9888 33.4412 37.5113 32.629 37.2034 31.7676C36.6321 30.1655 36.9177 28.6749 38.1405 27.4343C38.9885 26.573 39.9837 26.0553 41.2154 26.4212C42.5587 26.8229 43.3575 27.7824 43.6521 29.1391C43.728 29.4827 43.7056 29.8486 43.728 30.2012Z" fill="#F9B59F"/>
<path d="M25.2214 30.8388C24.9938 32.3382 24.5386 34.1725 22.633 35.2257C21.9547 35.6005 21.669 35.5693 21.138 35.0025C20.2097 34.0118 19.4689 32.8916 18.8843 31.6644C18.6031 31.0708 18.5362 30.455 18.4826 29.8123C18.3353 28.0495 19.4867 27.0365 20.6961 26.5456C21.919 26.0502 23.1061 26.3894 24.1459 27.4961C24.9135 28.3128 25.3151 29.2634 25.2259 30.8388H25.2214Z" fill="#F9B59F"/>
<path d="M31.3618 11.7109C32.8524 11.7243 34.3295 11.6708 35.7175 12.4562C37.8284 13.6478 38.6897 15.5311 37.5338 17.633C36.7127 19.1236 36.8109 20.2795 37.6543 21.5692C37.7302 21.6853 37.7793 21.8236 37.8373 21.9575C38.0069 22.3502 38.2434 22.801 37.7703 23.091C37.3375 23.3588 36.967 23.0152 36.6413 22.7385C36.3199 22.4573 36.0254 22.1449 35.7041 21.8682C34.7669 21.0605 33.861 20.4669 32.4507 20.9177C31.4734 21.2301 30.3175 21.1943 29.2911 20.8418C27.7469 20.3152 26.6848 20.8775 25.8369 22.1405C25.5602 22.551 25.2299 22.9259 24.8952 23.2919C24.6989 23.5061 24.4177 23.6176 24.1232 23.5105C23.717 23.3633 23.6858 22.9884 23.659 22.6314C23.6055 22.0289 23.9089 21.5201 24.1856 21.0337C24.6498 20.2125 24.5828 19.4806 24.199 18.6149C23.0298 15.9595 23.9357 13.6924 26.5777 12.4785C27.5461 12.0323 28.5636 11.6975 29.657 11.7154C30.2282 11.7243 30.795 11.7154 31.3663 11.7154L31.3618 11.7109Z" fill="#BECEA9"/>
<path d="M21.7354 45.038C20.7357 45.038 19.736 45.0782 18.7408 45.0247C18.0357 44.9845 17.3261 44.8595 16.6344 44.7033C16.0141 44.5695 15.6794 44.1098 15.5812 43.4939C15.5276 43.1414 15.5053 42.7843 15.4875 42.4273C15.2599 37.9467 16.5942 36.6569 20.2537 35.095C22.1772 34.2738 23.757 34.8317 25.1137 36.5989C25.6358 37.2773 26.0152 38.0806 26.1758 38.9196C26.4704 40.4592 26.7114 42.0123 26.8676 43.5698C26.9791 44.6855 26.5552 45.1005 25.3636 45.1541C24.1542 45.2076 22.9403 45.1675 21.7309 45.1675C21.7309 45.1273 21.7309 45.0827 21.7309 45.0425L21.7354 45.038Z" fill="#7C9A57"/>
<path d="M38.2927 44.701C37.3733 44.701 36.4495 44.7233 35.5302 44.692C34.9099 44.6742 34.5127 44.3306 34.2539 43.7415C33.2051 41.3583 34.1869 38.1808 36.4406 36.8866C37.6679 36.1815 38.9264 35.5299 40.1715 34.8516C40.9971 34.4009 41.8227 34.4901 42.6082 34.923C43.5007 35.4095 44.1925 36.1146 44.6388 37.0384C45.4554 38.7342 45.7723 40.5416 45.7544 42.4071C45.7455 43.4201 45.4376 43.7772 44.4022 44.0092C42.3895 44.4555 40.35 44.692 38.2882 44.701H38.2927Z" fill="#EA7C5B"/>
<path d="M44.5636 39.4076C44.3806 37.8188 43.555 36.6228 42.109 35.8731C41.5601 35.5874 40.913 35.4536 40.4935 34.9359C40.5292 34.2977 41.0023 33.9139 41.2745 33.4274C41.694 32.6777 42.0287 31.9012 42.2474 31.0622C42.475 30.1785 42.3411 29.3395 41.9573 28.563C41.3995 27.4295 40.5292 26.528 39.2216 26.4075C37.9051 26.2825 36.9144 27.0055 36.178 28.0632C34.8525 29.9777 35.1114 32.4456 36.7894 34.1147C37.1687 34.4896 37.7221 34.7083 37.9453 35.2036C37.2446 36.0069 36.3431 36.0248 35.5577 36.297C34.0626 36.8147 33.1969 37.8278 32.9202 39.3674C32.7952 40.0636 32.6658 40.7598 32.5408 41.4381C30.6486 41.8621 27.9977 42.0317 26.3286 41.8309C26.1724 40.8 26.0564 39.7378 25.8377 38.698C25.5476 37.3011 24.8202 36.2078 23.468 35.5919C23.0976 35.4223 22.6736 35.2974 22.4326 34.8555C22.5397 34.1504 23.0797 33.6372 23.3877 33.0079C23.9678 31.8253 24.307 30.6114 24.0794 29.286C23.8206 27.7642 22.5174 26.3763 21.2009 26.1888C19.6434 25.9657 18.0591 26.8404 17.3763 28.3488C17.2022 28.7281 17.113 29.161 17.0684 29.5805C16.9077 31.089 17.4388 32.3698 18.3938 33.5212C18.7821 33.9898 19.4292 34.2798 19.5452 35.0876C18.8535 35.3152 18.1751 35.4893 17.537 35.7615C15.8545 36.48 14.7433 37.6626 14.4487 39.5504C14.2523 40.8267 14.2166 42.1076 14.2657 43.3884C14.2747 43.6829 14.4353 43.973 14.7834 43.9105C15.5912 43.7633 16.2204 44.4148 17.0237 44.339C17.8003 44.2675 18.5902 44.33 19.3756 44.3256C20.9421 44.3166 22.513 44.3166 24.0794 44.2899C25.03 44.272 26.1412 44.5889 26.4893 43.192C26.5205 43.0626 26.8329 42.96 27.0293 42.9198C27.306 42.8573 27.5961 42.8618 27.8817 42.8439C29.2339 42.7547 30.5861 42.6788 31.9339 42.5717C33.0362 42.4824 33.3307 42.2013 33.4869 41.1972C33.5762 40.6348 33.6431 40.0681 33.7458 39.5102C33.9689 38.2696 34.7053 37.4886 35.8968 37.0959C36.776 36.8058 37.673 36.5425 38.4897 36.1274C39.2082 35.7615 39.8241 35.7838 40.4935 36.1408C40.9933 36.4086 41.5289 36.6228 42.0153 36.9084C42.8588 37.4038 43.4122 38.1758 43.555 39.122C43.7379 40.3046 43.9209 41.514 43.5728 42.6833C42.9793 42.96 42.4036 42.8484 41.8502 42.8573C39.4983 42.8975 37.1464 42.9153 34.7945 42.96C34.4464 42.9644 34.0939 43.0358 33.7547 43.1206C33.6699 43.1429 33.5717 43.3482 33.5807 43.4598C33.594 43.5758 33.719 43.7543 33.8172 43.7677C34.2367 43.8302 34.6651 43.8748 35.0891 43.8704C37.7266 43.8391 40.3641 43.7945 43.0016 43.7588C43.2158 43.7588 43.43 43.7633 43.6442 43.7365C44.3136 43.6561 44.6484 43.3304 44.6528 42.6029C44.6617 41.5363 44.6662 40.4563 44.5457 39.3987L44.5636 39.4076ZM18.9561 32.7C18.1573 31.8164 17.9118 30.7141 18.0189 29.5314C18.0725 28.9379 18.3224 28.4425 18.7151 28.0141C20.0316 26.5726 22.0488 26.8538 22.928 28.5943C23.1868 29.103 23.285 29.6832 23.2359 30.549C23.2181 31.1068 23.053 31.7182 22.7718 32.2984C21.4553 34.9983 20.9688 34.9403 18.9561 32.7ZM25.0612 43.3616C24.9541 43.4241 24.7756 43.4107 24.6551 43.4241C24.3829 43.4509 24.1151 43.4687 23.8429 43.4776C23.285 43.4999 22.7272 43.4999 22.1693 43.4999C22.1292 43.4999 22.0935 43.491 22.0667 43.4732C20.8974 43.6026 19.7148 43.6115 18.5366 43.6115C18.251 43.6115 18.251 43.1652 18.5366 43.1652C19.8799 43.1652 21.2411 43.1742 22.5754 42.9689C23.0128 42.9019 23.4457 42.8038 23.8875 42.7502C24.2579 42.7056 24.6596 42.6743 25.0077 42.835C25.0166 42.835 25.0166 42.8439 25.021 42.8484C25.1058 42.8796 25.1594 42.96 25.1728 43.0581C25.1862 43.1742 25.1772 43.2947 25.0612 43.3616ZM25.0969 41.929C24.2624 42.2816 23.3921 42.1522 22.5531 42.2504C20.3664 42.5003 18.1707 42.6699 16.0151 43.1295C15.4662 43.2456 15.194 43.0269 15.1672 42.5003C15.1137 41.5765 15.1449 40.6572 15.3056 39.7423C15.5733 38.2026 16.448 37.1539 17.8806 36.6183C18.8088 36.2702 19.7683 35.9935 20.7368 35.8016C22.0979 35.525 24.249 36.9129 24.7533 38.3856C25.1415 39.5281 25.3825 40.7152 25.0969 41.9335V41.929ZM38.8155 34.3512C37.2937 33.7711 36.294 32.3475 36.2851 30.607C36.3476 29.3663 36.834 28.2462 38.1015 27.5723C38.8021 27.1974 39.4805 27.2777 40.1142 27.7017C41.1049 28.3577 41.6583 29.701 41.4039 30.8747C41.1406 32.0797 40.5828 33.1463 39.7616 34.0701C39.5117 34.3512 39.1993 34.4985 38.8155 34.3512Z" fill="#4C4C4C"/>
<path d="M22.0494 23.1978C22.1877 22.756 22.2234 22.457 22.3662 22.2249C23.2543 20.779 23.2097 19.4535 22.4421 17.8693C21.4603 15.8476 22.1743 14.1607 24.0532 12.9245C24.1737 12.8486 24.2897 12.7683 24.4102 12.6969C27.1905 10.9564 32.6931 11.3536 34.7148 12.5095C36.7587 13.6787 37.6557 15.736 36.9506 17.9228C36.7498 18.5521 36.3615 19.0519 35.9242 19.5205C35.5761 19.8909 35.5716 20.2613 35.8215 20.6719C35.9331 20.8549 36.0536 21.0334 36.125 21.2342C36.3214 21.7697 37.2318 22.2651 36.5713 22.8408C36.0224 23.3183 35.4154 22.5909 34.8531 22.3499C34.5318 22.2115 34.2328 22.0018 33.9472 21.7965C33.5054 21.4796 33.0412 21.4395 32.5325 21.5823C30.5644 22.1312 28.5963 22.0464 26.6371 21.5198C26.0971 21.3725 25.6642 21.4663 25.2983 21.8768C25.2492 21.9304 25.1867 21.9706 25.1466 22.0241C24.4191 23.0059 23.3927 23.2603 22.0494 23.1978ZM34.032 20.6228C34.1168 20.7254 34.1882 20.8593 34.2953 20.9263C34.3934 20.9887 34.5675 21.0378 34.6567 20.9932C34.9334 20.8549 34.7505 20.6451 34.6746 20.4755C34.621 20.355 34.505 20.2658 34.4202 20.1631C34.3801 19.4892 34.9111 19.2081 35.2949 18.7975C36.8301 17.1597 36.4686 14.665 34.5586 13.4823C33.8222 13.0271 33.01 12.7415 32.1621 12.6255C30.6045 12.4113 29.0381 12.3622 27.4761 12.5675C26.2578 12.7281 25.1287 13.1655 24.1558 13.9286C23.1071 14.7498 22.6563 15.803 23.0848 17.1329C23.1919 17.4721 23.2499 17.8469 23.4329 18.137C23.9818 19.0162 24.2719 19.9132 23.955 20.9575C23.8747 21.2208 24.3209 21.4752 24.5352 21.261C25.4322 20.3595 26.4497 20.5514 27.5118 20.8192C28.989 21.194 30.4707 21.1672 31.9478 20.7924C32.6262 20.6183 33.309 20.3327 34.032 20.6183V20.6228ZM24.0309 21.7474C23.9862 21.7028 23.9327 21.6135 23.897 21.6225C23.8033 21.6403 23.714 21.6983 23.6203 21.7429C23.6649 21.7876 23.7185 21.8768 23.7542 21.8679C23.8479 21.8501 23.9371 21.792 24.0309 21.7474Z" fill="#4C4C4C"/>
</svg>
