<svg width="61" height="61" viewBox="0 0 61 61" fill="none" xmlns="http://www.w3.org/2000/svg">
<circle cx="30.126" cy="30.5" r="30" fill="white"/>
<path d="M36.9229 45.0001C36.9229 46.2261 36.6481 46.5758 35.4646 46.9171C32.9918 47.6291 30.5275 48.358 27.9998 48.8552C26.9642 49.0574 25.9201 49.2386 24.8761 49.4029C24.5971 49.4492 24.2885 49.4661 24.018 49.3944C23.553 49.2723 23.1177 49.3144 22.6738 49.445C22.323 49.5461 22.1159 49.4618 21.9891 49.0827C21.8496 48.6529 21.4734 48.3538 21.2578 47.9535C20.125 45.8806 19.5966 43.5971 18.9668 41.3557C17.8932 37.5301 16.8618 33.6919 15.7839 29.8664C14.9174 26.7992 14.0001 23.7446 13.1209 20.6816C12.8504 19.7421 13.0998 19.1101 13.941 18.5877C14.9216 17.9768 15.9995 17.585 17.1112 17.29C18.9203 16.8055 20.6407 16.0514 22.4244 15.4952C23.9673 15.0107 25.5397 14.6442 27.1248 14.3577C27.9195 14.2144 28.5746 14.602 28.8578 15.3056C29.9315 17.9641 30.6205 20.7322 31.4236 23.4666C32.8903 28.455 34.0359 33.5276 35.4181 38.5371C35.9422 40.4246 36.4832 42.3079 36.8552 44.2333C36.9059 44.5029 36.889 44.7684 36.9102 45.0043L36.9229 45.0001Z" fill="#ECEAD0"/>
<path d="M40.6805 33.9113C39.7442 35.1899 38.8756 36.5148 37.8757 37.747C37.3884 38.3504 36.9351 38.9791 36.4817 39.612C36.0411 40.2281 35.7996 40.2619 35.2318 39.7428C34.448 39.0255 34.0497 38.0887 33.6853 37.1182C32.9015 35.0295 32.4058 32.8648 31.7787 30.7339C31.2703 29.0081 30.8084 27.2696 30.3212 25.5353C30.2915 25.4256 30.2449 25.299 30.1687 25.2231C29.8806 24.9446 29.9568 24.6365 29.9907 24.2863C30.1475 22.628 31.0584 21.303 31.8423 19.9148C33.1006 17.6699 34.5327 15.5559 36.2953 13.6655C36.9563 12.9566 37.8248 12.5093 38.4816 11.7962C38.8332 11.4164 39.3756 11.4038 39.9137 11.5135C41.3203 11.8088 42.5406 12.5009 43.6972 13.2942C45.5064 14.539 47.3156 15.788 48.8536 17.3745C49.0655 17.594 49.3112 17.7754 49.5273 17.9864C50.3238 18.767 50.1586 19.6911 49.79 20.5604C49.2688 21.7967 48.3918 22.8221 47.5825 23.8812C46.1208 25.7969 44.6548 27.7127 43.3413 29.7381C42.7948 30.5862 42.2609 31.4428 41.6847 32.2699C41.4051 32.6707 41.2822 33.0041 41.7144 33.3585C42.3626 32.983 43.0998 32.8733 43.8455 32.8353C44.337 32.81 44.6251 33.0674 44.5658 33.5273C44.3963 34.9282 44.2735 36.3503 43.371 37.536C43.2058 37.7554 43.0193 37.9411 42.8033 38.1056C42.3245 38.4601 41.8245 38.6542 41.2483 38.3504C40.6466 38.0297 40.3331 37.5275 40.3077 36.8397C40.2738 36.0211 40.5195 35.2447 40.6678 34.4514C40.6975 34.2868 40.7187 34.1181 40.7441 33.9535C40.7907 33.9113 40.8373 33.8353 40.778 33.8058C40.7017 33.7636 40.7144 33.8691 40.689 33.9071L40.6805 33.9113ZM38.8586 12.235H39.9814C39.651 12.0494 39.3205 11.9903 38.8586 12.235ZM40.3373 12.3447C40.3628 12.3321 40.384 12.3236 40.4094 12.311C40.3967 12.3025 40.3797 12.2899 40.367 12.2899C40.3416 12.2941 40.3204 12.311 40.295 12.3194C40.3077 12.3279 40.3246 12.3321 40.3373 12.3405V12.3447Z" fill="#BECEA9"/>
<path d="M37.2827 40.2576C37.7826 40.3041 38.2106 40.4517 38.63 40.6332C39.8248 41.148 40.918 41.8147 41.6213 42.9455C42.0069 43.5701 42.1721 44.2452 41.6425 44.9119C41.2612 45.3929 40.7273 45.5997 40.1807 45.49C38.702 45.1946 37.3081 44.6292 35.9607 43.9625C35.6769 43.8232 35.6175 43.6966 35.8379 43.3886C36.1726 42.9202 36.1387 42.3042 36.3336 41.7683C36.448 41.456 36.5031 41.1184 36.6175 40.802C36.7319 40.4813 36.9522 40.2576 37.2827 40.2534V40.2576Z" fill="#BECEA9"/>
<path d="M38.8586 12.2354C39.3205 11.9907 39.651 12.0497 39.9814 12.2354H38.8586Z" fill="#BECEA9"/>
<path d="M40.3375 12.3451C40.3375 12.3451 40.3078 12.3324 40.2951 12.324C40.3205 12.3113 40.3417 12.2987 40.3671 12.2944C40.3798 12.2944 40.3926 12.3071 40.4095 12.3155C40.3841 12.3282 40.3629 12.3366 40.3375 12.3493V12.3451Z" fill="#BECEA9"/>
<path d="M40.6805 33.9116C40.706 33.8694 40.6933 33.7682 40.7695 33.8104C40.8246 33.8399 40.778 33.9159 40.7356 33.9581C40.7187 33.9412 40.7017 33.9285 40.6805 33.9116Z" fill="#BECEA9"/>
<path d="M28.3087 34.5906C28.3765 35.1012 28.118 35.4303 27.6986 35.6581C26.7876 36.1603 25.8216 36.5147 24.7878 36.6455C24.1353 36.7257 23.7286 36.4683 23.3854 35.7974C23.11 35.2615 22.9532 34.6665 22.5126 34.2108C22.2117 33.8986 21.8982 33.772 21.4745 33.8479C21.161 33.9028 20.8263 33.869 20.517 33.9408C20.0255 34.0547 19.8052 33.8184 19.6484 33.4049C19.3518 32.6158 19.0806 31.8183 18.89 30.9955C18.8307 30.7338 18.801 30.4722 18.623 30.2486C18.479 30.0671 18.5468 29.8561 18.6781 29.6874C18.7883 29.5481 18.9281 29.5017 19.123 29.5312C20.0721 29.6831 20.9788 28.8055 20.839 27.8729C20.5932 26.2188 20.6525 26.4636 21.9363 25.8222C22.8939 25.3411 23.9277 25.0753 24.9488 24.7715C25.4488 24.6238 25.8937 24.8812 26.1691 25.4424C26.3555 25.818 26.5038 26.2146 26.6648 26.6028C26.8046 26.9446 27.0292 27.0501 27.3893 26.9362C27.7918 26.8096 28.207 26.7336 28.6138 26.6155C29.0502 26.4889 29.3637 26.645 29.5247 27.0332C30.0162 28.2147 30.4441 29.4215 30.728 30.6705C30.9356 31.5693 30.7068 31.9364 29.8637 32.3035C29.4781 32.4723 29.0756 32.6158 28.6689 32.7128C28.2833 32.8057 28.135 32.9956 28.1858 33.3838C28.2409 33.7846 28.2663 34.1897 28.3045 34.5906H28.3087Z" fill="#EA7C5B"/>
<path d="M10.806 17.2523C10.806 15.881 11.3144 15.3282 12.6067 15.2269C12.8016 15.21 12.9711 15.1467 13.1406 15.075C17.1953 13.3661 21.4492 12.3618 25.7497 11.501C25.8472 11.4799 25.9531 11.4714 26.0506 11.4757C26.7073 11.5136 27.4191 12.193 27.6818 13.0327C27.9487 13.8809 28.1436 14.7206 27.275 15.3746C26.6734 15.8303 25.9743 16.0793 25.2752 16.3367C21.7331 17.6279 18.1275 18.7039 14.4371 19.5056C13.7126 19.6618 12.9838 19.7715 12.2296 19.7335C11.789 19.7124 11.539 19.5056 11.3356 19.1765C10.9543 18.5604 10.7382 17.8937 10.8018 17.2481L10.806 17.2523Z" fill="#EA7C5B"/>
<path d="M45.1804 31.2196C45.2058 31.5867 45.2143 32.0129 45.0702 32.38C44.8668 32.8948 44.6592 33.4138 44.4177 33.9117C44.2652 34.224 43.8966 34.2113 43.5957 34.1733C42.7399 34.0636 41.8883 33.9286 41.0366 33.802C40.9519 33.7894 40.8756 33.7514 40.7909 33.7429C40.1215 33.667 40.0155 33.5826 40.0452 32.9243C40.113 31.4939 40.346 30.1183 41.3247 28.9621C41.8883 28.2996 43.4263 27.8608 44.2101 28.2237C44.6211 28.4135 44.8965 28.7258 44.9685 29.1731C45.0787 29.8398 45.1973 30.5023 45.1761 31.2238L45.1804 31.2196Z" fill="#7C9A57"/>
<path d="M33.7617 38.9246C34.8379 39.0597 35.9861 39.2875 37.0665 39.7432C37.6385 39.9838 37.7868 40.6251 37.4394 41.2623C37.003 42.064 36.592 42.8742 36.27 43.7266C36.2276 43.8363 36.1386 43.9544 36.1556 44.0515C36.2488 44.5958 35.931 44.5663 35.5794 44.4692C34.3972 44.1528 33.355 43.562 32.4482 42.7603C31.4865 41.9164 31.6771 40.2834 32.2195 39.4943C32.4821 39.1061 33.0202 38.9246 33.7617 38.9204V38.9246Z" fill="#7C9A57"/>
<path d="M36.3845 23.1009C36.4141 24.7803 34.9355 26.0968 33.4356 25.7297C32.2069 25.4259 30.9442 23.8393 31.7535 22.2696C32.084 21.6325 32.3679 20.9826 33.139 20.683C33.9694 20.3581 34.8507 20.451 35.4863 21.0712C36.0032 21.5776 36.376 22.4131 36.3887 23.1009H36.3845Z" fill="#7C9A57"/>
<path d="M36.7318 26.5694C36.8123 25.3331 37.558 24.0714 39.0706 24.1262C40.8162 24.1938 41.5534 25.2613 41.545 26.6454C41.5365 27.8564 40.1468 29.0843 38.9096 29.0421C37.7063 28.9999 36.6809 27.8353 36.7275 26.5694H36.7318Z" fill="#7C9A57"/>
<path d="M37.7697 31.7215C37.7274 33.2659 36.7741 34.2744 35.3928 34.2364C34.1217 34.2026 33.1303 33.0549 33.1642 31.6582C33.1981 30.291 34.3082 29.3458 35.8123 29.3965C36.969 29.4387 37.8036 30.4303 37.7655 31.7215H37.7697Z" fill="#7C9A57"/>
<path d="M45.0108 20.763C44.9431 22.455 44.0957 23.3791 42.672 23.3243C41.4857 23.2779 40.4604 22.1006 40.5027 20.8431C40.5451 19.6659 41.7738 18.4717 42.9093 18.5097C44.1423 18.5519 45.0617 19.535 45.0108 20.763Z" fill="#7C9A57"/>
<path d="M39.9222 17.932C39.8841 18.7717 39.3248 19.4553 38.4266 19.8393C37.5834 20.1979 36.8674 19.8266 36.2657 19.2527C35.1514 18.1852 35.0963 16.5395 36.2149 15.645C37.2233 14.839 38.4393 14.6576 39.2528 15.9361C39.6765 16.6028 39.9349 17.1851 39.9222 17.932Z" fill="#7C9A57"/>
<path d="M32.7703 28.401C32.7237 28.8398 32.4822 29.3124 32.1135 29.7217C31.9991 29.8483 31.8381 29.9454 31.6644 29.8188C31.4992 29.6964 31.5119 29.5361 31.6263 29.3757C31.6814 29.2998 31.7492 29.2533 31.6517 29.131C31.0331 28.3546 30.9823 27.3629 30.6857 26.4642C30.5882 26.173 30.8255 25.9873 31.1475 26.076C31.9568 26.2996 32.7787 27.4305 32.766 28.401H32.7703Z" fill="#7C9A57"/>
<path d="M39.6102 34.4254C38.4637 36.0712 37.3043 37.7042 35.9454 39.2107C36.1535 39.4259 36.5187 39.4934 36.8032 39.7086C37.092 39.9239 37.4232 40.1475 37.2109 40.5526C37.0241 40.9071 36.6928 41.021 36.2512 40.9493C35.5972 40.8353 34.9814 40.6201 34.4251 40.2952C33.9155 39.9956 33.3762 39.9872 32.8369 40.0083C32.2339 40.0294 31.8772 40.8227 32.0555 41.5485C32.2381 42.2912 32.7392 42.7596 33.3635 43.1183C34.0344 43.498 34.7309 43.8314 35.4103 44.1985C35.6949 44.3504 35.801 44.3082 35.903 43.9791C36.1365 43.2238 36.1747 42.4135 36.5909 41.7046C36.8542 41.2573 37.1727 41.1223 37.6695 41.2109C38.6038 41.3713 39.4107 41.7975 40.1708 42.3292C41.3429 43.1436 41.4236 45.4012 40.0561 46.2156C39.6442 46.4604 39.1813 46.5405 38.6675 46.4055C37.8054 46.1734 37.041 45.7219 36.2087 45.4223C36.0176 45.3548 35.9454 45.359 35.852 45.5193C35.2532 46.5447 34.1236 46.5869 33.1596 46.8655C32.65 47.0131 32.115 47.1566 31.5714 47.2326C30.8113 47.3423 30.0639 47.5659 29.3207 47.7685C27.4862 48.2707 25.6686 48.8319 23.8256 49.2792C23.1376 49.4438 22.4667 49.7349 21.7278 49.718C21.2394 49.7096 20.853 49.5113 20.5302 49.2032C19.7446 48.4563 19.2732 47.5026 18.8655 46.5194C18.1521 44.7851 17.8761 42.9241 17.3537 41.1307C16.8442 39.3837 16.36 37.6283 15.8674 35.8728C15.1667 33.3916 14.4915 30.9019 13.7611 28.4291C13.1878 26.4964 12.4574 24.6144 11.9393 22.6648C11.8374 22.285 11.7397 21.9264 11.761 21.517C11.8204 20.5549 11.4467 19.6814 10.8522 18.9683C10.1557 18.1243 10.1727 17.1833 10.2279 16.2296C10.2577 15.719 10.6866 15.4067 11.1622 15.2295C12.8141 14.6134 14.4873 14.0691 16.1817 13.588C17.7996 13.1323 19.3964 12.609 21.0186 12.1744C22.5219 11.7777 24.0464 11.4443 25.6049 11.2882C25.8767 11.2587 26.1782 11.322 26.3608 11.5034C27.0488 12.1997 27.5541 13.0141 27.5753 14.0184C27.5881 14.6641 27.1167 15.0396 26.5731 15.2675C25.6516 15.6599 24.7131 16.0186 23.7746 16.3689C22.1906 16.9639 20.5599 17.4027 18.925 17.8374C17.702 18.1623 16.4959 18.5421 15.2517 18.7826C15.0181 18.829 14.7888 18.8206 14.5595 18.8459C13.8375 18.9345 13.5658 19.4704 13.243 20.057C13.5275 20.1203 13.7654 20.0781 14.0032 20.019C16.704 19.3734 19.3666 18.5885 21.9995 17.7065C23.558 17.1875 25.1123 16.6558 26.6071 15.968C27.2271 15.681 27.5074 15.7696 27.8896 16.3224C28.4417 17.1242 28.6243 18.061 28.9088 18.9683C29.4311 20.6266 29.9917 22.2682 30.5182 23.9223C30.6626 24.3696 30.7603 24.8338 30.8537 25.2938C30.9557 25.8001 30.7561 26.1462 30.2847 26.3361C29.0107 26.8509 27.673 27.1674 26.3523 27.5303C26.0168 27.6231 25.762 27.5134 25.5794 27.2096C25.3416 26.8171 25.1845 26.3909 25.0231 25.9647C24.7768 25.3149 24.505 25.1419 23.8638 25.3444C22.9763 25.6229 22.11 25.9689 21.2352 26.277C20.9804 26.3656 20.9082 26.5259 20.9549 26.7876C21.0525 27.3362 21.129 27.8847 21.2267 28.4333C21.2988 28.8553 21.112 29.1169 20.7383 29.2646C20.2372 29.4629 19.7361 29.6824 19.218 29.8343C18.8995 29.9271 18.8188 30.0622 18.8825 30.3702C19.1034 31.4505 19.4728 32.4759 19.906 33.4844C20.0249 33.7587 20.1905 33.86 20.5005 33.784C20.9591 33.6701 21.4305 33.5984 21.8976 33.514C22.2968 33.4422 22.5941 33.5984 22.8022 33.9317C23.0782 34.379 23.3542 34.8221 23.609 35.2778C23.7619 35.5521 23.9318 35.6492 24.263 35.5859C25.0996 35.4255 25.8894 35.1175 26.6793 34.8179C27.0615 34.6744 27.1762 34.3917 27.0997 34.0119C27.036 33.6996 26.9978 33.3789 26.9214 33.0709C26.7897 32.535 26.9426 32.151 27.4564 31.9104C27.9448 31.6826 28.4204 31.4083 28.9173 31.1973C29.3207 31.0243 29.3886 30.7753 29.2528 30.3955C29.0277 29.7625 28.7602 29.1422 28.6158 28.4797C28.4459 27.6864 28.5988 27.4079 29.3462 27.1336C29.567 27.0534 29.7878 26.9564 30.0087 26.8762C30.7093 26.6146 31.1255 26.7791 31.3506 27.4881C31.822 28.9945 32.408 30.4673 32.8411 31.9864C33.4696 34.2018 34.2171 36.3834 34.956 38.5651C35.0451 38.8309 35.2192 38.9364 35.4401 39.0335C35.6736 39.1348 35.8095 39.1643 35.784 38.8098C35.7586 38.43 36.1025 38.1937 36.3064 37.9152C36.9391 37.0417 37.5761 36.1724 38.2556 35.3411C39.1686 34.2229 39.5168 32.9063 39.7589 31.5349C39.8311 31.1213 39.916 30.7078 40.0264 30.3027C40.3407 29.1465 41.1093 28.4755 42.0988 28.4671C43.2071 28.4586 44.1499 29.2013 44.4641 30.3322C44.6467 30.9947 44.5958 31.6699 44.5193 32.3409C44.5066 32.4548 44.3962 32.6278 44.6085 32.6658C44.7656 32.6953 44.7826 32.5223 44.8166 32.4253C44.893 32.2227 44.9695 32.0159 44.9652 31.7881C44.9567 31.096 44.9652 30.404 44.961 29.7119C44.961 29.1802 44.7359 28.7751 44.2433 28.5304C44.0777 28.446 43.9121 28.3531 43.7634 28.2434C43.3855 27.9607 43.2369 27.602 43.4067 27.1336C43.6488 26.4795 44.014 25.8972 44.4386 25.3444C45.6787 23.7409 46.8252 22.074 47.8911 20.3524C48.2479 19.7742 48.2436 19.2594 47.8317 18.7235C47.4877 18.2804 47.1098 17.8669 46.6724 17.5166C44.4896 15.7696 42.2262 14.1408 39.7419 12.8327C39.4276 12.6681 39.1007 12.5288 38.7652 12.4065C37.8904 12.0857 37.1302 12.3052 36.4805 12.9381C35.8987 13.5078 35.3679 14.1281 34.8923 14.7822C33.3592 16.8795 31.7625 18.9387 30.5055 21.2216C30.3951 21.4242 30.2592 21.5803 30.0341 21.4495C29.8006 21.3145 29.8473 21.0486 29.9407 20.863C30.1445 20.4494 30.3909 20.057 30.6329 19.6645C32.0258 17.4238 33.5631 15.2759 35.2235 13.2251C35.8605 12.4402 36.5569 11.7355 37.6526 11.6005C38.3702 11.5119 39.02 11.706 39.64 11.9971C41.4533 12.8538 43.1222 13.9425 44.7359 15.124C45.8103 15.9089 46.9357 16.6305 47.8529 17.6095C47.9464 17.7065 48.0483 17.7952 48.1332 17.9049C48.9061 18.8965 49.1821 19.597 48.4432 20.8587C47.3051 22.8041 45.908 24.5637 44.5703 26.3614C44.4514 26.5217 44.3537 26.699 44.2518 26.872C43.9206 27.429 43.9545 27.5725 44.4981 27.889C45.1648 28.2772 45.564 28.7709 45.598 29.6149C45.6319 30.5559 45.6956 31.4885 45.4663 32.4084C45.3262 32.9738 44.9992 33.4422 44.4726 33.7292C44.2645 33.8431 44.1669 33.9781 44.1074 34.2187C43.8993 35.0373 43.6318 35.8433 43.3175 36.6324C43.0415 37.3245 42.5999 37.873 41.9586 38.2655C41.1688 38.7508 40.4044 38.4722 39.8735 37.9194C39.2875 37.3076 39.2535 36.5438 39.3979 35.7631C39.4828 35.3116 39.7376 34.9023 39.7716 34.4339C39.933 34.3917 39.9372 34.2398 39.9882 34.1216C40.3492 33.3114 40.5403 33.1806 41.4193 33.2101C41.776 33.2228 42.1285 33.2566 42.481 33.2945C43.217 33.3733 43.6474 33.0526 43.7719 32.3324C43.7804 32.2818 43.8017 32.2354 43.8059 32.1847C43.8611 31.4294 43.9333 30.674 43.5384 29.9651C43.0288 29.0578 41.7166 28.8679 41.0244 29.6149C40.7356 29.9271 40.6634 30.328 40.5742 30.7204C40.2855 31.9611 40.1581 33.2439 39.6145 34.417L39.6102 34.4254ZM36.0856 40.1644C35.903 39.9112 35.7204 39.8521 35.5505 39.7973C34.8158 39.5525 34.4124 39.063 34.1788 38.3161C33.1427 35.012 32.0513 31.7205 30.9896 28.4206C30.6924 27.4965 30.5947 27.4543 29.7071 27.7624C29.3419 27.889 29.2145 28.0451 29.3462 28.4206C29.5797 29.0874 29.8091 29.7583 30.0044 30.4335C30.187 31.0623 30.0341 31.4209 29.4608 31.7416C29.0617 31.9653 28.6497 32.1678 28.2293 32.3409C27.7622 32.5307 27.5074 32.7713 27.7155 33.3241C27.8259 33.6152 27.8174 33.9528 27.8556 34.2693C27.9108 34.7377 27.7282 35.1133 27.3163 35.3285C26.2716 35.8644 25.176 36.2568 23.9955 36.375C23.6048 36.413 23.299 36.2526 23.0952 35.9235C22.8446 35.5226 22.5856 35.1259 22.369 34.7039C22.1906 34.3579 21.9826 34.1891 21.5706 34.3284C21.2989 34.4212 21.0101 34.455 20.7256 34.5141C19.855 34.6955 19.511 34.5352 19.1543 33.7292C18.6532 32.6025 18.2838 31.4294 18.0757 30.2098C17.9865 29.6993 18.1479 29.4334 18.6617 29.2393C19.1543 29.0536 19.6427 28.8679 20.1395 28.7034C20.4156 28.6148 20.5047 28.4924 20.4368 28.1886C20.3306 27.7117 20.2712 27.2264 20.2245 26.7412C20.1735 26.2643 20.3179 25.8888 20.8105 25.6862C21.783 25.2853 22.7639 24.9224 23.7789 24.6524C24.6537 24.4203 25.2609 24.7578 25.6049 25.5976C25.7408 25.9225 25.8682 26.2517 25.9871 26.585C26.072 26.8213 26.2079 26.8762 26.4585 26.8002C27.2696 26.5597 28.1062 26.3909 28.9003 26.1082C30.48 25.547 30.3611 26.0111 29.877 24.2894C29.2867 22.2049 28.4756 20.1793 27.9406 18.0737C27.8301 17.6306 27.6773 17.2086 27.4607 16.8035C27.3163 16.5334 27.1762 16.5123 26.9044 16.6305C22.8701 18.3775 18.6532 19.559 14.3981 20.6224C13.7484 20.7828 13.0732 20.9474 12.4107 20.4579C12.4192 21.2765 12.4659 22.0192 12.7037 22.745C15.0776 29.8934 17.0437 37.1557 18.9377 44.4433C19.2944 45.8232 19.7743 47.1397 20.6576 48.2875C21.1417 48.9163 21.7065 49.1653 22.5176 48.9332C24.9042 48.2453 27.3036 47.587 29.7029 46.9456C31.2699 46.5279 32.8751 46.2494 34.4209 45.7472C34.8371 45.6122 35.1768 45.3843 35.4316 44.9961C35.1938 44.8695 34.9687 44.7555 34.7479 44.6374C33.9877 44.2281 33.2064 43.8567 32.5057 43.3503C31.8517 42.8777 31.4865 42.2363 31.3378 41.4641C31.1467 40.4809 31.7413 39.561 32.718 39.2909C33.3847 39.1052 33.9877 39.2909 34.5823 39.5694C35.0324 39.7846 35.4571 40.0716 36.0941 40.1559L36.0856 40.1644ZM13.0817 18.9894C12.5551 18.8881 12.0667 18.7573 11.761 18.3015C11.1112 17.3436 11.6081 16.3309 12.8821 16.0102C13.5021 15.854 13.8333 16.0102 14.0371 16.5798C14.1688 16.9428 14.2834 17.3183 14.2834 17.7108C14.2834 18.0694 14.3811 18.1538 14.7633 18.0779C18.3347 17.3479 21.8297 16.3646 25.227 15.0565C25.6219 14.9046 26.0041 14.7231 26.3905 14.5543C26.8874 14.3391 27.0021 13.9804 26.8279 13.4825C26.709 13.1449 26.5137 12.8495 26.3566 12.5373C26.106 12.0435 25.7535 11.917 25.1972 12.0056C23.2056 12.3305 21.2564 12.7989 19.3284 13.3854C16.8569 14.1366 14.3556 14.7991 11.9096 15.6388C11.5316 15.7696 11.09 15.9005 10.9796 16.3435C10.8437 16.8879 10.797 17.4744 11.0942 17.9724C11.5784 18.7826 12.1389 19.5506 12.4234 20.479C12.4192 19.884 12.8566 19.5 13.0774 18.9936L13.0817 18.9894ZM40.3746 44.1437C40.4638 43.5191 40.1326 43.0339 39.5465 42.6794C39.0242 42.3629 38.4722 42.1224 37.8946 41.9241C37.4572 41.7764 37.2406 41.924 37.1472 42.3081C36.9689 43.0254 36.7268 43.7217 36.4593 44.4095C36.3871 44.5868 36.4041 44.6838 36.5909 44.7598C37.3595 45.0678 38.1154 45.4012 38.8926 45.6881C39.4489 45.8907 39.882 45.6966 40.1793 45.1944C40.3577 44.8906 40.3959 44.5614 40.3831 44.1395L40.3746 44.1437ZM43.4152 34.0372C42.6338 33.995 41.8737 33.9528 41.1178 33.9191C40.9819 33.9148 40.846 33.9191 40.7696 34.071C40.3534 34.9445 39.9797 35.8306 40.0986 36.8223C40.1538 37.2654 40.4426 37.5903 40.88 37.738C41.2919 37.8773 41.6444 37.738 41.9459 37.451C42.1285 37.278 42.3111 37.105 42.4258 36.8687C42.8547 35.9699 43.1859 35.0415 43.4152 34.033V34.0372ZM13.2006 18.234C13.6125 18.3184 13.7059 18.1201 13.5955 17.7276C13.5191 17.4533 13.4893 17.1706 13.4171 16.8963C13.3917 16.7951 13.3747 16.6136 13.226 16.6389C12.8821 16.7022 12.4956 16.7613 12.3045 17.082C12.1262 17.3774 12.2068 17.7065 12.4362 17.9639C12.623 18.1792 12.8906 18.2382 13.2048 18.2298L13.2006 18.234ZM36.1917 40.1095C36.1662 40.118 36.1365 40.1264 36.111 40.1391C36.1408 40.1644 36.1662 40.1981 36.2002 40.2108C36.2172 40.215 36.2512 40.1813 36.2767 40.1644C36.2469 40.1475 36.2215 40.1306 36.1917 40.1138V40.1095Z" fill="#4C4C4C"/>
</svg>
